<svg id="레이어_1" data-name="레이어 1" xmlns="http://www.w3.org/2000/svg" viewBox="0 0 400 400"><path d="M274.25,279.59c4.18-4.41,9-16.82,10.75-30.49,1.79-13.82,3.89-58.37,4.18-66.77,2.42-71-35.92-107.82-79.14-107.82s-93,36.81-95.47,107.82c-2,16.81-2.91,48.49-2.33,60s3.38,27,11,37.21H89.31L66,314.34H179l1.48-6.11c-10.72-2-15.55-10.16-18-19.61-2.29-8.71-2.18-46.78-.46-97,.64-18.83,4.11-38.15,7.62-53.06,5.24-22.26,18.63-39.33,39.54-39.05,13.36.19,26.94,13.07,30.09,34.55,2.35,16,1.39,37.46.7,57.56-1.6,47.06-5,78.95-11.33,92.93-5.27,11.66-19.31,21-33.67,23.6l-1.5,6.17H307.08l23.29-34.75Z"/></svg>