<svg id="레이어_1" data-name="레이어 1" xmlns="http://www.w3.org/2000/svg" viewBox="0 0 1400 400"><path d="M533.56,134.36A46.24,46.24,0,0,0,519,124.52a43.51,43.51,0,0,0-17.37-3.59h-8.33A42.75,42.75,0,0,0,476,124.52a46.63,46.63,0,0,0-14.47,9.84,47.46,47.46,0,0,0-9.73,14.82,45.43,45.43,0,0,0-3.47,17.6V231.4a45.43,45.43,0,0,0,3.47,17.6,47.58,47.58,0,0,0,9.73,14.82A46.63,46.63,0,0,0,476,273.66a42.58,42.58,0,0,0,17.26,3.59h8.33A43.34,43.34,0,0,0,519,273.66a46.24,46.24,0,0,0,14.59-9.84,43.26,43.26,0,0,0,9.61-14.59,47.25,47.25,0,0,0,3.36-17.83V166.78A47.25,47.25,0,0,0,543.17,149,43.26,43.26,0,0,0,533.56,134.36ZM476,149.3a23.26,23.26,0,0,1,17.26-7.53h8.33A23.28,23.28,0,0,1,519,149.18a24.42,24.42,0,0,1,7.18,17.6v1.6l-57.43,42.94V166.78A24.37,24.37,0,0,1,476,149.3ZM519,249a23.28,23.28,0,0,1-17.37,7.41h-8.33A23.26,23.26,0,0,1,476,248.88a24.51,24.51,0,0,1-7.19-15.16l57.33-42.86V231.4A24.42,24.42,0,0,1,519,249Z"/><path d="M672.28,176.05a58.31,58.31,0,0,0-41.45-17.37,47.48,47.48,0,0,0-23.28,5.55Q597.49,169.8,592.39,177V122.32H572V276.09h20.38V258.26a55.24,55.24,0,0,0,17.48,13.9,46,46,0,0,0,21,5.09,58.31,58.31,0,0,0,41.45-17.37,61.12,61.12,0,0,0,12.63-19.11,59.94,59.94,0,0,0,0-45.62A61,61,0,0,0,672.28,176.05Zm-14.82,69a37,37,0,0,1-26.63,11.35,37.26,37.26,0,0,1-14.71-3A36.41,36.41,0,0,1,604,245.06,37.88,37.88,0,0,1,592.85,218a37.08,37.08,0,0,1,3-14.7,41.14,41.14,0,0,1,8.1-12.39,35,35,0,0,1,12.16-8.22,38.42,38.42,0,0,1,14.71-2.9,37.57,37.57,0,0,1,14.59,2.9,35.25,35.25,0,0,1,12,8.22,41,41,0,0,1,8.11,12.39,37.25,37.25,0,0,1,3,14.7A37.89,37.89,0,0,1,657.46,245.06Z"/><path d="M794.79,178.36A48.86,48.86,0,0,0,757,160.76a58,58,0,0,0-22.58,4.4,57.32,57.32,0,0,0-18.64,12.51,58.68,58.68,0,0,0-12.62,64,55.5,55.5,0,0,0,12.62,18.64,57.16,57.16,0,0,0,18.64,12.51,58,58,0,0,0,22.58,4.4,43.84,43.84,0,0,0,20.61-5.09,58.14,58.14,0,0,0,17.14-13.67v17.6h20.84v-113H794.79Zm-3.13,55.35a36.46,36.46,0,0,1-20,20,37.36,37.36,0,0,1-14.59,2.9,38.19,38.19,0,0,1-14.7-2.9,36.38,36.38,0,0,1-12.16-8,36.78,36.78,0,0,1-8-12,37.36,37.36,0,0,1-2.9-14.59,38.23,38.23,0,0,1,2.9-14.7,35.9,35.9,0,0,1,20.15-20.15,38.38,38.38,0,0,1,14.7-2.9,37.54,37.54,0,0,1,14.59,2.9,36.17,36.17,0,0,1,20,20.15,38.41,38.41,0,0,1,2.9,14.7A37.54,37.54,0,0,1,791.66,233.71Z"/><path d="M893.33,211.48q-9.62-3-25.13-3.71-8.81-.22-12.74-4.63a13.6,13.6,0,0,1-3.7-9.26,13,13,0,0,1,2.43-7.64,15.17,15.17,0,0,1,7.29-5.33q3.71-1.62,10.66-1.62,13,0,17.37,7.64a21.59,21.59,0,0,1,3,7.87H912.2l.46-.23q-1.38-11.12-6-18.52a37.6,37.6,0,0,0-11.58-11.58q-9.49-5.57-22.23-5.56-17.37,0-27.9,8t-12.39,23a33.84,33.84,0,0,0-.24,4.63q0,13.44,7.88,22.24,9.72,11.58,28,11.57,14.59,0,19.68,2.55t5.1,10.89a12.87,12.87,0,0,1-4.63,10.07q-4.64,4.05-12.74,4.52a21.5,21.5,0,0,1-3.71.23q-9.49,0-14.82-5.1a17.44,17.44,0,0,1-4.63-9H831.84q2.31,15.53,11.58,24.09,11.34,10.65,29.87,10.65h3.48a35,35,0,0,0,14.24-3,41.32,41.32,0,0,0,11.93-7.87q10.41-10,10.42-23.63,0-13.43-5.21-20.84A27.58,27.58,0,0,0,893.33,211.48Z"/><path d="M1003.56,164.93a60.14,60.14,0,0,0-45.16,0,54.08,54.08,0,0,0-18.64,12.51,58.72,58.72,0,0,0-17.14,41.45,56.79,56.79,0,0,0,4.52,22.46,58.87,58.87,0,0,0,31.38,31.38A57,57,0,0,0,981,277.25a55.46,55.46,0,0,0,28.95-7.87,65.86,65.86,0,0,0,22.23-22.47l-17.6-10.42q-13,19.92-33.58,19.92a35.62,35.62,0,0,1-22.69-7.65,43.49,43.49,0,0,1-9.38-10.19q-4.06-6-4.06-11.57h93.8a60,60,0,0,0,.69-8.81q0-23.15-17.14-40.75A54.17,54.17,0,0,0,1003.56,164.93Zm-58.71,44.23a24.15,24.15,0,0,1,5-14.47,36.14,36.14,0,0,1,13.32-11,40.2,40.2,0,0,1,35.66,0,36.14,36.14,0,0,1,13.32,11,24.15,24.15,0,0,1,5,14.47Z"/><path d="M1066.76,251.12a11.93,11.93,0,0,0-8.94,3.69,12.27,12.27,0,0,0-3.54,8.8,12.12,12.12,0,0,0,12.48,12.48,12.23,12.23,0,0,0,8.8-3.55,11.89,11.89,0,0,0,3.69-8.93,12.6,12.6,0,0,0-12.49-12.49Z"/><polygon points="1168.93 160.3 1135.58 244.83 1102 160.3 1080 160.3 1125.62 276.09 1145.3 276.09 1190.93 160.3 1168.93 160.3"/><path d="M1248.82,256.41a37.35,37.35,0,0,1-26.4-10.89,38.4,38.4,0,0,1-8.11-12,36.87,36.87,0,0,1,0-29.18,38.4,38.4,0,0,1,8.11-12,37.35,37.35,0,0,1,26.4-10.89q16.2,0,28.25,12.74l18.07-10.42q-19-23.16-46.32-23.16a56.19,56.19,0,0,0-22.35,4.52,58.87,58.87,0,0,0-18.64,12.62,58.7,58.7,0,0,0,0,82.44,58.87,58.87,0,0,0,18.64,12.62,56.19,56.19,0,0,0,22.35,4.52q27.33,0,46.32-23.16l-18.07-10.42Q1265,256.4,1248.82,256.41Z"/><path d="M274.25,279.59c4.18-4.41,9-16.82,10.75-30.49,1.79-13.82,3.89-58.37,4.18-66.77,2.42-71-35.92-107.82-79.14-107.82s-93,36.81-95.47,107.82c-2,16.81-2.91,48.49-2.33,60s3.38,27,11,37.21H89.31L66,314.34H179l1.48-6.11c-10.72-2-15.55-10.16-18-19.61-2.29-8.71-2.18-46.78-.46-97,.64-18.83,4.11-38.15,7.62-53.06,5.24-22.26,18.63-39.33,39.54-39.05,13.36.19,26.94,13.07,30.09,34.55,2.35,16,1.39,37.46.7,57.56-1.6,47.06-5,78.95-11.33,92.93-5.27,11.66-19.31,21-33.67,23.6l-1.5,6.17H307.08l23.29-34.75Z"/></svg>